#!OML:ASF F:\VICON\USERDATA\INSTALL\Justin_Nancy\Justin_Nancy.ASF
:FULLY-SPECIFIED
:DEGREES
408
root -0.236963 17.2847 25.6888 0.492581 -3.21034 0.994294
lowerback 5.16476 2.8211 0.656107
upperback -1.66821 3.83976 0.627085
thorax -4.61893 1.89452 -0.067194
lowerneck -15.9941 -6.02136 -10.2936
upperneck 22.7274 -7.73184 7.917
head 10.6698 -3.53678 3.45709
rclavicle 4.57205e-015 -3.97569e-016
rhumerus -34.7505 -15.6056 -75.2922
rradius 34.3391
rwrist 3.72651
rhand -16.0924 13.3674
rfingers 7.12502
rthumb 10.111 -16.3697
lclavicle 4.57205e-015 -3.97569e-016
lhumerus -41.978 20.654 75.2736
lradius 18.7326
lwrist -20.5946
lhand -5.08077 29.0531
lfingers 7.12502
lthumb 20.7158 57.9674
rfemur 3.2976 5.05385 21.1501
rtibia 48.7521
rfoot 10.4147 4.64535
rtoes 3.06623
lfemur -22.6277 -2.22264 -23.3648
ltibia 28.2615
lfoot -3.5856 -1.60137
ltoes 3.35236
409
root -0.22764 17.2991 25.8751 0.319697 -3.24947 1.95901
lowerback 5.28233 2.84213 -0.33032
upperback -1.5276 3.78592 0.349783
thorax -4.58447 1.89174 0.198293
lowerneck -16.3458 -6.18633 -10.32
upperneck 22.6833 -7.93197 7.95832
head 10.7462 -3.61685 3.43773
rclavicle -3.52222e-015 -5.1684e-015
rhumerus -34.8579 -15.9552 -75.3036
rradius 33.7771
rwrist 4.0643
rhand -16.1647 13.629
rfingers 7.12502
rthumb 10.0412 -16.1115
lclavicle -3.52222e-015 -5.1684e-015
lhumerus -41.5674 19.5026 76.1874
lradius 19.701
lwrist -18.4807
lhand -6.31903 27.2279
lfingers 7.12502
lthumb 19.5256 56.2674
rfemur 1.69424 4.8842 19.9011
rtibia 51.7153
rfoot 10.6489 4.90776
rtoes 6.43846
lfemur -21.5408 -2.15438 -24.5656
ltibia 27.9199
lfoot -3.96189 -1.86152
ltoes 3.26072
410
root -0.230717 17.3112 26.043 0.217077 -3.4866 2.22027
lowerback 5.43305 2.92069 -0.783437
upperback -1.26085 3.8559 0.324558
thorax -4.42148 1.93767 0.418092
lowerneck -16.7899 -6.07797 -10.3792
upperneck 22.2833 -7.75907 8.23126
head 10.681 -3.5004 3.56055
rclavicle -2.7496e-014 -3.97569e-016
rhumerus -34.6219 -16.3412 -75.3552
rradius 33.2083
rwrist 4.46622
rhand -16.1739 13.7504
rfingers 7.12502
rthumb 10.0324 -15.9905
lclavicle -2.7496e-014 -3.97569e-016
lhumerus -40.8215 18.7981 77.0041
lradius 20.4836
lwrist -17.0568
lhand -6.46892 27.6664
lfingers 7.12502
lthumb 19.3815 56.7205
rfemur -0.124985 5.08005 19.6449
rtibia 54.5896
rfoot 10.2379 4.58
rtoes 7.33754
lfemur -20.6368 -1.92347 -24.8922
ltibia 27.6448
lfoot -4.59172 -1.77211
ltoes 2.53322
411
root -0.227212 17.3207 26.212 0.210653 -3.57446 2.37519
lowerback 5.56308 2.95212 -1.02433
upperback -1.17882 3.879 0.315535
thorax -4.42572 1.95478 0.535958
lowerneck -17.2219 -5.96803 -10.4554
upperneck 22.188 -7.58378 8.43745
head 10.7221 -3.39193 3.66772
rclavicle -4.14637e-014 -3.57812e-015
rhumerus -34.5642 -16.5557 -75.3026
rradius 32.4025
rwrist 4.9998
rhand -16.1631 13.9552
rfingers 7.12502
rthumb 10.0428 -15.7852
lclavicle -4.14637e-014 -3.57812e-015
lhumerus -40.3824 17.9675 77.702
lradius 21.2065
lwrist -15.5269
lhand -6.65541 28.0071
lfingers 7.12502
lthumb 19.2022 57.0791
rfemur -2.04542 5.10681 19.4485
rtibia 57.2965
rfoot 8.9566 3.6456
rtoes 6.89546
lfemur -19.8867 -1.78336 -25.1312
ltibia 27.4531
lfoot -5.21121 -1.52095
ltoes 1.57913
412
root -0.216849 17.3282 26.388 0.0280194 -3.44261 2.80877
lowerback 5.82497 2.85967 -1.42539
upperback -1.22409 3.71755 0.193341
thorax -4.6354 1.88384 0.633026
lowerneck -17.8137 -6.07048 -10.3283
upperneck 22.7175 -7.67981 8.19651
head 11.0259 -3.43732 3.5411
rclavicle -1.72523e-014 -1.98785e-015
rhumerus -34.8724 -16.6595 -75.2707
rradius 31.6695
rwrist 5.62569
rhand -16.0048 13.7509
rfingers 7.12502
rthumb 10.1955 -15.982
lclavicle -1.72523e-014 -1.98785e-015
lhumerus -40.3587 17.2994 78.0667
lradius 21.7179
lwrist -13.7612
lhand -8.20908 26.8306
lfingers 7.12502
lthumb 17.7076 56.0443
rfemur -3.63792 4.80126 18.8428
rtibia 59.7368
rfoot 7.56474 2.3214
rtoes 6.80413
lfemur -18.9185 -1.67282 -25.7393
ltibia 27.2702
lfoot -5.72097 -1.58716
ltoes 1.71296
413
root -0.213104 17.342 26.5551 -0.032564 -3.24697 3.05447
lowerback 5.93918 2.7287 -1.73155
upperback -1.1159 3.51648 0.159161
thorax -4.59895 1.79099 0.786057
lowerneck -16.9216 -5.78717 -10.5682
upperneck 21.6407 -7.34371 8.65278
head 10.4524 -3.27549 3.7984
rclavicle 4.25764e-014 4.37326e-015
rhumerus -34.7273 -16.821 -75.3268
rradius 30.926
rwrist 6.30297
rhand -15.8564 12.8454
rfingers 7.12502
rthumb 10.3387 -16.8805
lclavicle 4.25764e-014 4.37326e-015
lhumerus -39.8541 16.8364 78.5248
lradius 22.1773
lwrist -12.3879
lhand -9.11147 26.593
lfingers 7.12502
lthumb 16.8391 55.8829
rfemur -5.3149 4.37179 18.5049
rtibia 61.918
rfoot 6.54664 0.984231
rtoes 5.50501
lfemur -18.1262 -1.51905 -26.0997
ltibia 27.0368
lfoot -6.0646 -1.83051
ltoes 1.93406
